PathFileType	4	(X/Y/Z)	Patient4_TMGait_0pt8_01_left_39.trc.trc
DataRate	CameraRate	NumFrames	NumMarkers	Units	OrigDataRate	OrigDataStartFrame	OrigNumFrames
87.500000000000	87.500000000000	6	33	mm	87.500000000000	1	       141
Frame#	Time	Sacral			L.Shoulder			Chest			R.Shoulder			Neck			R.ASIS			L.ASIS			R.Thigh.Superior			R.Thigh.Lateral			R.Thigh.Inferior			R.Patella			L.Thigh.Superior			L.Thigh.Lateral			L.Thigh.Inferior			L.Patella			L.Shank.Superior			L.Shank.Lateral			L.Shank.Inferior			R.Shank.Superior			R.Shank.Lateral			R.Shank.Inferior			R.Heel			R.Midfoot.Superior			R.Midfoot.Lateral			R.Toe			L.Heel			L.Midfoot.Lateral			L.Midfoot.Superior			L.Toe			L.Elbow			L.Wrist			R.Elbow			R.Wrist			
		X1	Y1	Z1	X2	Y2	Z2	X3	Y3	Z3	X4	Y4	Z4	X5	Y5	Z5	X6	Y6	Z6	X7	Y7	Z7	X8	Y8	Z8	X9	Y9	Z9	X10	Y10	Z10	X11	Y11	Z11	X12	Y12	Z12	X13	Y13	Z13	X14	Y14	Z14	X15	Y15	Z15	X16	Y16	Z16	X17	Y17	Z17	X18	Y18	Z18	X19	Y19	Z19	X20	Y20	Z20	X21	Y21	Z21	X22	Y22	Z22	X23	Y23	Z23	X24	Y24	Z24	X25	Y25	Z25	X26	Y26	Z26	X27	Y27	Z27	X28	Y28	Z28	X29	Y29	Z29	X30	Y30	Z30	X31	Y31	Z31	X32	Y32	Z32	X33	Y33	Z33	

1	43.170000000000	868.615176027883	1010.983602531293	489.331986062260	1033.273790180302	1438.730549613882	298.708304724516	1150.606409595128	1366.496895550263	449.061570106924	1084.661480174818	1438.240311820106	631.635239450463	1042.077523757447	1498.715927373092	455.192387945476	1102.181793183379	949.709340163223	590.571685610418	1069.427479455449	963.375570079591	318.323723205513	1133.263963631542	745.173385891233	568.869995455395	1044.987168713520	638.310224587678	625.696670728635	1121.931965288098	584.346627284510	547.964470517331	1118.968250772544	498.843235105518	553.111321775398	1156.634205166098	787.399247597861	337.932802751893	1108.595584051220	659.801453672939	260.165359562101	1221.509771098351	599.476742667609	308.579497928144	1236.193105014370	509.008740163936	298.927993826741	1168.655053738863	440.286758388530	298.571557020788	1022.848179005750	399.741257197226	261.776897532138	1013.619018200003	270.531369643073	317.478103721160	1095.158326757605	410.509666162745	557.285695965101	1024.495608523926	302.586925243498	612.445506408892	1075.755979340016	211.401184364108	548.982586753458	949.200158177517	43.344970852930	509.908860283734	1122.676658912759	98.977236704368	545.235683650796	1033.840428982295	37.054610003170	582.754247023886	1241.740718376791	44.763597584739	568.237102410564	825.426997800135	208.265220854109	370.597136767218	876.404939467546	162.452473052526	285.747707755530	983.322542057971	168.176585899769	299.949860785133	1056.223921503137	54.789812792814	264.756651030455	985.235750900123	1085.028297429016	192.773535943311	1123.603323147220	860.511957213756	191.629686747452	1077.068967217428	1085.013028951639	747.142694271512	1216.248515742342	863.353551469784	744.041239190477	
2	43.181428571429	867.516022150418	1011.698514870172	489.509694847261	1032.176492248329	1439.130953679055	299.721384997111	1149.929465256279	1366.567069864109	449.553993592251	1084.799006281181	1438.148010685508	632.489196290199	1042.036567975847	1498.936567203694	456.272188575999	1100.809289180195	949.965290829804	591.088913975397	1068.468574948408	963.713049129607	318.739721509819	1129.275590117622	744.820634341138	568.980306142920	1039.834153742019	638.735343149563	626.106455543613	1115.937040440444	583.910936269147	548.638636930241	1111.987241408701	498.540339640901	553.838012409893	1156.744946446805	790.138316343812	338.171667834100	1111.050562885150	661.852823141398	259.920569029035	1224.431854224316	603.344004878911	308.250579405325	1240.920708664066	513.995878852572	298.620389473668	1176.917576649097	443.381385527499	298.213176180676	1034.150680307037	394.946687126848	261.368179763122	1032.468747462808	265.614303155959	316.556751007347	1087.490552504509	410.463013882909	557.687415363323	1016.068846008945	302.985089865609	612.679311750052	1067.002633610574	211.453651361905	549.282945305884	939.653714122345	43.595835300537	509.956045937254	1113.228155255936	99.017233229138	545.475737582234	1024.232526776892	37.107507765140	582.738416832366	1232.142037928264	44.524823739484	568.305212623082	849.213354872821	192.749175480324	369.577833608771	902.323032884916	150.187759945410	284.626608525107	1008.290155041774	162.073217371850	298.691265293509	1087.256755458395	53.675539615094	263.222194755229	976.727789027424	1086.291782691956	195.462967624720	1098.264586728652	854.452206253369	195.221983576993	1090.575116317810	1085.795784012619	747.738125754696	1242.535267221552	874.753437042536	741.042814539773	
3	43.192857142857	866.418758071331	1012.372738924099	489.660084413142	1031.118122566051	1439.502922803226	300.700542704457	1149.267204581380	1366.603374665423	450.027953116557	1084.928775057187	1438.023984023845	633.314250082963	1042.002271014200	1499.126086975307	457.318088993131	1099.439831765452	950.188756424714	591.592030531948	1067.531171091441	964.009410440237	319.125800609445	1125.369104166729	744.447824723026	569.073702665365	1034.789017038864	639.124397615226	626.489022926557	1110.067864527773	583.456384472743	549.265073484235	1105.132751184204	498.220943116994	554.506957515417	1156.804604487027	792.730626808658	338.423700897526	1113.380497808686	663.783222573294	259.722350345195	1227.158043445778	606.998753046473	308.060300607864	1245.402275473336	518.796822627870	298.431500721953	1184.922278342109	446.369048243809	297.917432074207	1045.299999900315	390.097118142794	260.953924255106	1051.170613544284	260.700576133884	315.579461204194	1079.967150022150	410.391924462792	558.045895883689	1007.805041116582	303.358969880196	612.887245703453	1058.381889892637	211.489008076679	549.548602772035	930.223844625332	43.836904658467	509.993141172304	1103.893423806798	99.049219694739	545.697067513293	1014.746617308706	37.160452463365	582.718143947069	1222.662823895427	44.285740817273	568.375721090088	872.974902167164	177.300459588721	368.434763802718	928.159689159665	138.039787479145	283.371451325915	1033.117250054747	156.028534426859	297.340960407879	1118.061020342786	52.661394468168	261.565180030942	968.323406314001	1087.565583965548	198.082034233357	1073.273919410151	848.738240008273	198.733164598216	1103.848208822736	1086.630806073875	748.287364773597	1268.375832075833	886.272900222838	737.977879023600	
4	43.204285714286	865.325186829730	1012.963180120685	489.755011780113	1030.142613706002	1439.808723781328	301.603908143900	1148.638114395440	1366.559700169010	450.456667776879	1085.053035237090	1437.832202394697	634.071109270334	1041.987817574829	1499.244777629189	458.287023306190	1098.073737312694	950.334495426690	592.058985515002	1066.624253117983	964.215040015006	319.448848680675	1121.590897548506	744.017743369180	569.126118551971	1029.908426283819	639.436269090933	626.808912445368	1104.384656632442	582.950669997759	549.787168157003	1098.462689108407	497.855017027294	555.050557963295	1156.726882005241	795.001352677286	338.698297892192	1115.408559308377	665.448509082383	259.596998657604	1229.441732498193	610.204471413564	308.125545876533	1249.354546978841	523.230620296434	298.475908739013	1192.418636519531	449.163551656311	297.741213512381	1056.245791732009	385.126029356475	260.512703951988	1069.724130091867	255.852245486804	314.507068582113	1072.652205615838	410.263854092049	558.311183650310	999.778913477449	303.682217132095	613.042323210243	1049.926774866473	211.482868927983	549.739583361298	920.919227724082	44.055521619031	510.011603378235	1094.677407540521	99.064438040977	545.882106446309	1005.395403787258	37.213194464454	582.691522386820	1213.314988145335	44.045809443506	568.451138724058	896.940388471212	162.010448663558	367.056429961985	954.113970217646	126.166632097976	281.885577600903	1057.889495973413	150.191654235001	295.840783824218	1148.659289755288	52.011324816577	259.754763054431	960.071790310613	1088.877524522877	200.563172267892	1048.824690817332	843.717191919996	202.114290432649	1116.739275593277	1087.591420719626	748.720877298632	1293.426369442743	898.234013091042	734.719207443301	
5	43.215714285714	864.238180216238	1013.436566498769	489.771099858836	1029.288468560573	1440.015875068129	302.394451448172	1148.060107957069	1366.396469730499	450.815428682773	1085.178339058369	1437.545200798772	634.723504308523	1042.006789876710	1499.259363901305	459.140278054312	1096.713341553944	950.364274645391	592.472524142059	1065.752313665114	964.291250559386	319.679027509640	1117.970673124730	743.495555772703	569.119941308886	1025.220481498923	639.636820094254	627.033748828994	1098.915104702902	582.363118147581	550.158521498561	1092.005235882985	497.415327552207	555.411771354144	1156.429673730804	796.801683541784	339.000857441842	1116.974938275935	666.722549724592	259.566742658097	1231.066473904848	612.762963065940	308.533488839426	1252.538450228698	527.151560248108	298.848690572297	1199.205020804511	451.702605486443	297.734643960291	1066.981152589729	379.988490449147	260.015573447733	1088.158640071721	251.155429715315	313.321190716356	1065.574700028723	410.050909793747	558.439767992457	992.025504533419	303.932926437218	613.122589090275	1041.638859987683	211.412827614528	549.820842956430	911.721987472895	44.239191663147	510.005499461533	1085.559616695057	99.057342524547	546.017356357458	996.162235106847	37.264878132154	582.656917757056	1204.082634996989	43.805375771920	568.533687544563	921.347199492893	146.994512393313	365.354293102268	980.411443197117	114.741846995621	280.103942749553	1082.725431606584	144.734495796556	294.164606006013	1179.120872672690	52.005645957064	257.810453951133	952.004288802593	1090.254861228455	202.853015970438	1025.059915032083	839.662750603612	205.338161454946	1129.143204446532	1088.740747883232	748.974800503688	1317.415926764668	910.941010773674	731.152197158352	
6	43.227142857143	863.163426687618	1013.772016702875	489.692145210277	1028.586131963410	1440.099486846485	303.041741812130	1147.549681743019	1366.084642252024	451.082789081365	1085.314991080511	1437.147308813637	635.240078649046	1042.071798573665	1499.145940817304	459.845274610552	1095.365960255560	950.250045183497	592.820440060463	1064.916124958318	964.213450086982	319.792342892898	1114.522980485788	742.852651769125	569.044600189357	1020.728647454673	639.702174697586	627.137273650171	1093.658756030683	581.669150037201	550.346738260284	1085.763953680460	496.880116051964	555.548850337021	1155.843135661597	798.019988157127	339.330389128118	1117.946914198630	667.507784071605	259.642520830844	1231.864629685211	614.530319998974	309.327222175638	1254.777342767646	530.457919323104	299.611315376748	1205.137282117386	453.950583733394	297.933446368114	1077.524304721146	374.676531625981	259.430973965172	1106.497236290212	246.723451726059	312.030535171987	1058.734326364007	409.732639485499	558.398827682248	984.546816710297	304.095545794157	613.113679302503	1033.497982172747	211.261158456282	549.766652964290	902.600948635661	44.376802675789	509.972640430196	1076.507458262549	99.026023316161	546.094851038215	987.014764083634	37.314059495557	582.613814875530	1194.935585421984	43.566420387704	568.624353085685	946.374000010565	132.412860669926	363.280787518706	1007.235490329383	103.959783233923	278.010200135789	1107.719894529771	139.847677988205	292.328402034967	1209.500419862908	52.916457720987	255.811645401872	944.144981282112	1091.718941192751	204.913009807867	1002.094858073658	836.752086252301	208.397399261172	1140.989756799402	1090.123189662369	748.995817837803	1340.131176822614	924.632113766358	727.191082725509	
